<svg width="24" height="24" viewBox="0 0 24 24" fill="none" xmlns="http://www.w3.org/2000/svg">
<path d="M10.7998 12.0008L14.6998 15.9008C14.8832 16.0841 14.9748 16.3174 14.9748 16.6008C14.9748 16.8841 14.8832 17.1174 14.6998 17.3008C14.5165 17.4841 14.2832 17.5758 13.9998 17.5758C13.7165 17.5758 13.4832 17.4841 13.2998 17.3008L8.69982 12.7008C8.59982 12.6008 8.52915 12.4924 8.48782 12.3758C8.44649 12.2591 8.42549 12.1341 8.42482 12.0008C8.42415 11.8674 8.44515 11.7424 8.48782 11.6258C8.53049 11.5091 8.60115 11.4008 8.69982 11.3008L13.2998 6.70078C13.4832 6.51745 13.7165 6.42578 13.9998 6.42578C14.2832 6.42578 14.5165 6.51745 14.6998 6.70078C14.8832 6.88411 14.9748 7.11745 14.9748 7.40078C14.9748 7.68411 14.8832 7.91745 14.6998 8.10078L10.7998 12.0008Z" fill="#616161"/>
</svg>
