<svg xmlns="http://www.w3.org/2000/svg" width="16" height="16" viewBox="0 0 16 16" fill="none">
  <path d="M7.99992 11.6667C8.83325 11.6667 9.5417 11.3751 10.1253 10.792C10.7088 10.2089 11.0004 9.50044 10.9999 8.66667C10.9995 7.83289 10.7079 7.12467 10.1253 6.542C9.54259 5.95933 8.83414 5.66756 7.99992 5.66667C7.1657 5.66578 6.45747 5.95756 5.87525 6.542C5.29303 7.12644 5.00125 7.83467 4.99992 8.66667C4.99859 9.49867 5.29036 10.2071 5.87525 10.792C6.46014 11.3769 7.16836 11.6684 7.99992 11.6667ZM7.99992 10.3333C7.53325 10.3333 7.13881 10.1722 6.81659 9.85C6.49436 9.52778 6.33325 9.13333 6.33325 8.66667C6.33325 8.2 6.49436 7.80556 6.81659 7.48333C7.13881 7.16111 7.53325 7 7.99992 7C8.46659 7 8.86103 7.16111 9.18325 7.48333C9.50547 7.80556 9.66659 8.2 9.66659 8.66667C9.66659 9.13333 9.50547 9.52778 9.18325 9.85C8.86103 10.1722 8.46659 10.3333 7.99992 10.3333ZM2.66659 14C2.29992 14 1.98614 13.8696 1.72525 13.6087C1.46436 13.3478 1.3337 13.0338 1.33325 12.6667V4.66667C1.33325 4.3 1.46392 3.98622 1.72525 3.72533C1.98659 3.46444 2.30036 3.33378 2.66659 3.33333H4.76659L5.59992 2.43333C5.72214 2.3 5.86947 2.19444 6.04192 2.11667C6.21436 2.03889 6.39481 2 6.58325 2H9.41659C9.60547 2 9.78614 2.03889 9.95859 2.11667C10.131 2.19444 10.2781 2.3 10.3999 2.43333L11.2333 3.33333H13.3333C13.6999 3.33333 14.0139 3.464 14.2753 3.72533C14.5366 3.98667 14.667 4.30044 14.6666 4.66667V12.6667C14.6666 13.0333 14.5361 13.3473 14.2753 13.6087C14.0144 13.87 13.7004 14.0004 13.3333 14H2.66659Z" fill="white"/>
</svg>