<svg width="64" height="64" viewBox="0 0 64 64" fill="none" xmlns="http://www.w3.org/2000/svg">
<g id="ic-check-solid">
<path id="Vector" d="M28.2668 36.7997L22.5335 31.0663C22.0446 30.5775 21.4224 30.333 20.6668 30.333C19.9113 30.333 19.2891 30.5775 18.8002 31.0663C18.3113 31.5552 18.0668 32.1775 18.0668 32.933C18.0668 33.6886 18.3113 34.3108 18.8002 34.7997L26.4002 42.3997C26.9335 42.933 27.5557 43.1997 28.2668 43.1997C28.9779 43.1997 29.6002 42.933 30.1335 42.3997L45.2002 27.333C45.6891 26.8441 45.9335 26.2219 45.9335 25.4663C45.9335 24.7108 45.6891 24.0886 45.2002 23.5997C44.7113 23.1108 44.0891 22.8663 43.3335 22.8663C42.5779 22.8663 41.9557 23.1108 41.4668 23.5997L28.2668 36.7997ZM32.0002 58.6663C28.3113 58.6663 24.8446 57.9659 21.6002 56.565C18.3557 55.1641 15.5335 53.2646 13.1335 50.8663C10.7335 48.4681 8.83394 45.6459 7.43483 42.3997C6.03572 39.1535 5.33528 35.6868 5.3335 31.9997C5.33172 28.3126 6.03217 24.8459 7.43483 21.5997C8.8375 18.3535 10.7371 15.5312 13.1335 13.133C15.5299 10.7348 18.3522 8.83523 21.6002 7.43434C24.8482 6.03345 28.3148 5.33301 32.0002 5.33301C35.6855 5.33301 39.1522 6.03345 42.4002 7.43434C45.6482 8.83523 48.4704 10.7348 50.8668 13.133C53.2633 15.5312 55.1637 18.3535 56.5682 21.5997C57.9726 24.8459 58.6722 28.3126 58.6668 31.9997C58.6615 35.6868 57.9611 39.1535 56.5655 42.3997C55.1699 45.6459 53.2704 48.4681 50.8668 50.8663C48.4633 53.2646 45.6411 55.165 42.4002 56.5677C39.1593 57.9703 35.6926 58.6699 32.0002 58.6663Z" fill="#00B1A7"/>
</g>
</svg>
