<svg width="24" height="24" viewBox="0 0 24 24" fill="none" xmlns="http://www.w3.org/2000/svg">
<g id="ic-delete" clip-path="url(#clip0_1766_814)">
<path id="Vector" d="M12 13.4142L14.1213 15.5355C14.3217 15.7359 14.5576 15.8361 14.8291 15.8361C15.1007 15.8361 15.3361 15.7359 15.5355 15.5355C15.7349 15.3352 15.8351 15.0992 15.8361 14.8277C15.837 14.5562 15.7368 14.3207 15.5355 14.1213L13.4142 12L15.5355 9.87868C15.7359 9.67833 15.8361 9.4424 15.8361 9.17087C15.8361 8.89934 15.7359 8.66387 15.5355 8.46447C15.3352 8.26506 15.0995 8.16512 14.8284 8.16465C14.5574 8.16418 14.3217 8.26412 14.1213 8.46447L12 10.5858L9.87868 8.46447C9.67833 8.26412 9.44263 8.16418 9.17157 8.16465C8.90052 8.16512 8.66481 8.26506 8.46447 8.46447C8.26412 8.66387 8.16418 8.89957 8.16465 9.17157C8.16512 9.44357 8.26506 9.67927 8.46447 9.87868L10.5858 12L8.46447 14.1213C8.26412 14.3217 8.16418 14.5574 8.16465 14.8284C8.16513 15.0995 8.26506 15.3352 8.46447 15.5355C8.66387 15.7359 8.89981 15.8361 9.17228 15.8361C9.44475 15.8361 9.68022 15.7359 9.87868 15.5355L12 13.4142ZM19.0711 19.0711C18.0929 20.0492 16.9879 20.7827 15.7562 21.2716C14.5244 21.7604 13.2723 22.0051 12 22.0056C10.7277 22.006 9.47563 21.7614 8.24385 21.2716C7.01207 20.7818 5.9071 20.0483 4.92893 19.0711C3.95077 18.0938 3.21726 16.9889 2.72842 15.7562C2.23957 14.5234 1.99491 13.2714 1.99444 12C1.99397 10.7286 2.23863 9.47657 2.72842 8.24385C3.21821 7.01112 3.95171 5.90615 4.92893 4.92893C5.90615 3.95171 7.01113 3.21821 8.24385 2.72842C9.47657 2.23863 10.7286 1.99397 12 1.99444C13.2714 1.99491 14.5237 2.23933 15.7569 2.72771C16.9901 3.21608 18.0948 3.94982 19.0711 4.92893C20.0473 5.90804 20.7809 7.01301 21.2716 8.24385C21.7623 9.47468 22.007 10.7267 22.0056 12C22.0041 13.2733 21.7597 14.5255 21.2723 15.7569C20.7849 16.9882 20.0511 18.0929 19.0711 19.0711Z" fill="#BDBDBD"/>
</g>
<defs>
<clipPath id="clip0_1766_814">
<rect width="24" height="24" fill="white"/>
</clipPath>
</defs>
</svg>
