<svg width="256" height="119" viewBox="0 0 256 119" fill="none" xmlns="http://www.w3.org/2000/svg">
<g id="Group 1171276905">
<circle id="Ellipse 1252" cx="166" cy="113.112" r="5" fill="#7359F2" fill-opacity="0.7"/>
<circle id="Ellipse 1254" cx="6.5" cy="6.5" r="6.5" transform="matrix(-1 0 0 1 13 44.9971)" fill="#E6FF3F"/>
<circle id="Ellipse 1253" cx="231" cy="93.9971" r="5" fill="#00B1A7" fill-opacity="0.5"/>
<circle id="Ellipse 1255" cx="5" cy="5" r="5" transform="matrix(-1 0 0 1 97 13.999)" fill="#00B1A7" fill-opacity="0.5"/>
<path id="Vector 2" d="M186.554 23.6361L171.846 24.6191L185.571 8.92857L186.554 23.6361Z" fill="#E6FF3F"/>
<path id="Vector 6" d="M83.0002 113.455L97.436 116.436L85.981 99.0189L83.0002 113.455Z" fill="#E6FF3F"/>
<path id="Vector 4" d="M231.372 1.67632L229.696 12.3721L220.676 -4.82361e-05L231.372 1.67632Z" fill="#7359F2" fill-opacity="0.7"/>
<path id="Vector 7" d="M31.4593 12.1702L42.1719 13.7354L33.0244 1.45762L31.4593 12.1702Z" fill="#7359F2" fill-opacity="0.7"/>
<path id="Vector 3" d="M192.199 68.5214L197.324 60.4628L205.383 69.2499L195.13 74.3801L192.199 68.5214Z" fill="#00B1A7" fill-opacity="0.5"/>
<path id="Vector 8" d="M44.1782 93.4013L39.0534 85.3427L30.9938 94.1298L41.2466 99.26L44.1782 93.4013Z" fill="#00B1A7" fill-opacity="0.5"/>
<path id="Vector 10" d="M72.7454 59.5945L68.5686 53.0267L61.9999 60.1882L70.3562 64.3695L72.7454 59.5945Z" fill="#7359F2" fill-opacity="0.7"/>
<path id="Vector 5" d="M242.199 47.8556L247.324 55.9141L255.383 47.127L245.13 41.9968L242.199 47.8556Z" fill="#E6FF3F"/>
</g>
</svg>
