<svg width="24" height="24" viewBox="0 0 24 24" fill="none" xmlns="http://www.w3.org/2000/svg">
<g id="ic-book-solid">
<path id="Vector" d="M7.5 22C6.53333 22 5.70833 21.6583 5.025 20.975C4.34167 20.2917 4 19.4667 4 18.5V5.5C4 4.53333 4.34167 3.70833 5.025 3.025C5.70833 2.34167 6.53333 2 7.5 2H18C18.55 2 19.021 2.19567 19.413 2.587C19.805 2.97833 20.0007 3.44933 20 4V16.525C20 16.6583 19.946 16.7793 19.838 16.888C19.73 16.9967 19.534 17.1173 19.25 17.25C19.0167 17.3667 18.8333 17.5333 18.7 17.75C18.5667 17.9667 18.5 18.2167 18.5 18.5C18.5 18.7833 18.5667 19.0377 18.7 19.263C18.8333 19.4883 19.0167 19.6507 19.25 19.75C19.4833 19.8493 19.6667 19.987 19.8 20.163C19.9333 20.339 20 20.5263 20 20.725V20.975C20 21.2583 19.904 21.5 19.712 21.7C19.52 21.9 19.2827 22 19 22H7.5ZM9 15C9.28333 15 9.521 14.904 9.713 14.712C9.905 14.52 10.0007 14.2827 10 14V5C10 4.71667 9.904 4.47933 9.712 4.288C9.52 4.09667 9.28267 4.00067 9 4C8.71733 3.99933 8.48 4.09533 8.288 4.288C8.096 4.48067 8 4.718 8 5V14C8 14.2833 8.096 14.521 8.288 14.713C8.48 14.905 8.71733 15.0007 9 15ZM7.5 20H16.825C16.725 19.7667 16.646 19.5293 16.588 19.288C16.53 19.0467 16.5007 18.784 16.5 18.5C16.5 18.2333 16.525 17.975 16.575 17.725C16.625 17.475 16.7083 17.2333 16.825 17H7.5C7.06667 17 6.70833 17.146 6.425 17.438C6.14167 17.73 6 18.084 6 18.5C6 18.9333 6.14167 19.2917 6.425 19.575C6.70833 19.8583 7.06667 20 7.5 20Z" fill="#00B1A7"/>
</g>
</svg>
