<svg width="24" height="25" viewBox="0 0 24 25" fill="none" xmlns="http://www.w3.org/2000/svg">
<g id="ic-book">
<path id="Vector" d="M6 16.1531C6.23333 16.0365 6.475 15.9531 6.725 15.9031C6.975 15.8531 7.23333 15.8281 7.5 15.8281H8V4.82812H7.5C7.08333 4.82812 6.72933 4.97413 6.438 5.26613C6.14667 5.55813 6.00067 5.91213 6 6.32812V16.1531ZM10 15.8281H18V4.82812H10V15.8281ZM7.5 22.8281C6.53333 22.8281 5.70833 22.4865 5.025 21.8031C4.34167 21.1198 4 20.2948 4 19.3281V6.32812C4 5.36146 4.34167 4.53646 5.025 3.85313C5.70833 3.16979 6.53333 2.82812 7.5 2.82812H18C18.55 2.82812 19.021 3.02379 19.413 3.41512C19.805 3.80646 20.0007 4.27746 20 4.82812V17.3531C20 17.4865 19.946 17.6075 19.838 17.7161C19.73 17.8248 19.534 17.9455 19.25 18.0781C19.0167 18.1948 18.8333 18.3615 18.7 18.5781C18.5667 18.7948 18.5 19.0448 18.5 19.3281C18.5 19.6115 18.5667 19.8658 18.7 20.0911C18.8333 20.3165 19.0167 20.4788 19.25 20.5781C19.4833 20.6775 19.6667 20.8151 19.8 20.9911C19.9333 21.1671 20 21.3545 20 21.5531V21.8031C20 22.0865 19.904 22.3281 19.712 22.5281C19.52 22.7281 19.2827 22.8281 19 22.8281H7.5ZM7.5 20.8281H16.825C16.725 20.5948 16.646 20.3575 16.588 20.1161C16.53 19.8748 16.5007 19.6121 16.5 19.3281C16.5 19.0615 16.525 18.8031 16.575 18.5531C16.625 18.3031 16.7083 18.0615 16.825 17.8281H7.5C7.06667 17.8281 6.70833 17.9741 6.425 18.2661C6.14167 18.5581 6 18.9121 6 19.3281C6 19.7615 6.14167 20.1198 6.425 20.4031C6.70833 20.6865 7.06667 20.8281 7.5 20.8281Z" fill="#9E9E9E"/>
</g>
</svg>
