<svg width="14" height="14" viewBox="0 0 14 14" fill="none" xmlns="http://www.w3.org/2000/svg">
<g clip-path="url(#clip0_1041_3804)">
<path d="M11.1361 3.51069C11.2959 4.57721 11.4816 5.18766 10.7187 5.18766C9.68071 5.18766 9.68032 2.73102 7.92363 1.33153C6.1857 -0.0527167 4.88938 0.283771 4.86202 0.291196C4.86163 0.291587 4.86085 0.292369 4.86046 0.292759C6.30802 1.50114 5.50061 3.48724 4.55328 4.03477C3.64426 4.56002 2.60666 3.89759 3.14988 2.33865C1.95518 3.97224 0.923828 5.95169 0.923828 7.92411C0.923828 11.1424 3.53288 13.7515 6.7512 13.7515C9.96952 13.7515 12.5786 11.1424 12.5786 7.92411C12.5786 6.40347 11.9642 4.87853 11.1361 3.51069Z" fill="#FF6078"/>
<path d="M6.7513 7.00781C6.7513 7.00781 9.28531 8.4671 9.28531 10.506C9.28531 11.9054 8.15079 13.04 6.7513 13.04C5.35181 13.04 4.21729 11.9054 4.21729 10.506C4.21729 8.4671 6.7513 7.00781 6.7513 7.00781Z" fill="#FFE6BE"/>
</g>
<defs>
<clipPath id="clip0_1041_3804">
<rect width="13.5025" height="13.5025" fill="white" transform="translate(0 0.248047)"/>
</clipPath>
</defs>
</svg>
