<svg width="24" height="25" viewBox="0 0 24 25" fill="none" xmlns="http://www.w3.org/2000/svg">
<g id="ic-home-solid">
<path id="Vector" d="M4 19.8281V10.8281C4 10.5115 4.071 10.2115 4.213 9.92813C4.355 9.64479 4.55067 9.41146 4.8 9.22812L10.8 4.72813C11.15 4.46146 11.55 4.32812 12 4.32812C12.45 4.32812 12.85 4.46146 13.2 4.72813L19.2 9.22812C19.45 9.41146 19.646 9.64479 19.788 9.92813C19.93 10.2115 20.0007 10.5115 20 10.8281V19.8281C20 20.3781 19.804 20.8491 19.412 21.2411C19.02 21.6331 18.5493 21.8288 18 21.8281H15C14.7167 21.8281 14.4793 21.7321 14.288 21.5401C14.0967 21.3481 14.0007 21.1108 14 20.8281V15.8281C14 15.5448 13.904 15.3075 13.712 15.1161C13.52 14.9248 13.2827 14.8288 13 14.8281H11C10.7167 14.8281 10.4793 14.9241 10.288 15.1161C10.0967 15.3081 10.0007 15.5455 10 15.8281V20.8281C10 21.1115 9.904 21.3491 9.712 21.5411C9.52 21.7331 9.28267 21.8288 9 21.8281H6C5.45 21.8281 4.97933 21.6325 4.588 21.2411C4.19667 20.8498 4.00067 20.3788 4 19.8281Z" fill="#00B1A7"/>
</g>
</svg>
