<svg width="24" height="24" viewBox="0 0 24 24" fill="none" xmlns="http://www.w3.org/2000/svg">
<g id="ic-chevron-left">
<path id="Vector" d="M10.8001 11.9998L14.7001 15.8998C14.8834 16.0831 14.9751 16.3165 14.9751 16.5998C14.9751 16.8831 14.8834 17.1165 14.7001 17.2998C14.5167 17.4831 14.2834 17.5748 14.0001 17.5748C13.7167 17.5748 13.4834 17.4831 13.3001 17.2998L8.70006 12.6998C8.60006 12.5998 8.5294 12.4915 8.48806 12.3748C8.44673 12.2581 8.42573 12.1331 8.42506 11.9998C8.4244 11.8665 8.4454 11.7415 8.48806 11.6248C8.53073 11.5081 8.6014 11.3998 8.70006 11.2998L13.3001 6.6998C13.4834 6.51647 13.7167 6.4248 14.0001 6.4248C14.2834 6.4248 14.5167 6.51647 14.7001 6.6998C14.8834 6.88314 14.9751 7.11647 14.9751 7.3998C14.9751 7.68314 14.8834 7.91647 14.7001 8.0998L10.8001 11.9998Z" fill="#9E9E9E"/>
</g>
</svg>
