<svg xmlns="http://www.w3.org/2000/svg" width="53" height="24" viewBox="0 0 53 24" fill="none">
  <path d="M27.1271 0C28.9643 0 30.4105 1.44625 30.4105 3.28339C30.4105 5.12052 28.9643 6.56678 27.1271 6.56678C25.29 6.56678 23.8438 5.12052 23.8438 3.28339C23.8438 1.44625 25.29 0 27.1271 0ZM29.9415 8.63844V24H24.3128V8.63844H29.9415Z" fill="#79DAD5"/>
  <path d="M29.9415 24V8.63844H24.3128V24H29.9415Z" fill="#79DAD5"/>
  <path d="M29.9422 23.9983V8.63672H24.3135V23.9983H29.9422Z" fill="#00B1A7" fill-opacity="0.9"/>
  <path d="M37.9153 0V12.9772L44.2476 6.56678H51.6352L43.3485 14.4625L52.2215 24H44.6384L37.9153 16.4951V24H32.2866V0H37.9153Z" fill="#79DAD5"/>
  <path d="M14.4626 5.08143H6.01955V10.1238H13.8372V15.2052H6.01955V24H0V0H14.4626V5.08143Z" fill="#79DAD5"/>
  <path d="M21.9675 0V24H16.3389V0H21.9675Z" fill="#00B1A7" fill-opacity="0.9"/>
  <path d="M37.9153 0V24H32.2866L32.2866 0H37.9153Z" fill="#00B1A7" fill-opacity="0.9"/>
  <path d="M6.01955 0V24H0V0H6.01955Z" fill="#00B1A7" fill-opacity="0.9"/>
</svg>