<svg width="24" height="25" viewBox="0 0 24 25" fill="none" xmlns="http://www.w3.org/2000/svg">
<g id="ic-person">
<path id="Vector" d="M12 12.8281C10.9 12.8281 9.95833 12.4365 9.175 11.6531C8.39167 10.8698 8 9.92812 8 8.82812C8 7.72813 8.39167 6.78646 9.175 6.00313C9.95833 5.21979 10.9 4.82812 12 4.82812C13.1 4.82813 14.0417 5.21979 14.825 6.00313C15.6083 6.78646 16 7.72813 16 8.82812C16 9.92812 15.6083 10.8698 14.825 11.6531C14.0417 12.4365 13.1 12.8281 12 12.8281ZM4 18.8281V18.0281C4 17.4615 4.146 16.9408 4.438 16.4661C4.73 15.9915 5.11733 15.6288 5.6 15.3781C6.63333 14.8615 7.68333 14.4741 8.75 14.2161C9.81667 13.9581 10.9 13.8288 12 13.8281C13.1 13.8275 14.1833 13.9568 15.25 14.2161C16.3167 14.4755 17.3667 14.8628 18.4 15.3781C18.8833 15.6281 19.271 15.9908 19.563 16.4661C19.855 16.9415 20.0007 17.4621 20 18.0281V18.8281C20 19.3781 19.8043 19.8491 19.413 20.2411C19.0217 20.6331 18.5507 20.8288 18 20.8281H6C5.45 20.8281 4.97933 20.6325 4.588 20.2411C4.19667 19.8498 4.00067 19.3788 4 18.8281ZM6 18.8281H18V18.0281C18 17.8448 17.9543 17.6781 17.863 17.5281C17.7717 17.3781 17.6507 17.2615 17.5 17.1781C16.6 16.7281 15.6917 16.3908 14.775 16.1661C13.8583 15.9415 12.9333 15.8288 12 15.8281C11.0667 15.8275 10.1417 15.9401 9.225 16.1661C8.30833 16.3921 7.4 16.7295 6.5 17.1781C6.35 17.2615 6.229 17.3781 6.137 17.5281C6.045 17.6781 5.99933 17.8448 6 18.0281V18.8281ZM12 10.8281C12.55 10.8281 13.021 10.6325 13.413 10.2411C13.805 9.84979 14.0007 9.37879 14 8.82812C13.9993 8.27746 13.8037 7.80679 13.413 7.41612C13.0223 7.02546 12.5513 6.82946 12 6.82812C11.4487 6.82679 10.978 7.02279 10.588 7.41612C10.198 7.80946 10.002 8.28013 10 8.82812C9.998 9.37612 10.194 9.84713 10.588 10.2411C10.982 10.6351 11.4527 10.8308 12 10.8281Z" fill="#9E9E9E"/>
</g>
</svg>
