<svg width="24" height="25" viewBox="0 0 24 25" fill="none" xmlns="http://www.w3.org/2000/svg">
<g id="ic-search">
<path id="Vector" d="M9.5 16.8281C7.68333 16.8281 6.146 16.1988 4.888 14.9401C3.63 13.6815 3.00067 12.1441 3 10.3281C2.99933 8.51213 3.62867 6.97479 4.888 5.71613C6.14733 4.45746 7.68467 3.82812 9.5 3.82812C11.3153 3.82812 12.853 4.45746 14.113 5.71613C15.373 6.97479 16.002 8.51213 16 10.3281C16 11.0615 15.8833 11.7531 15.65 12.4031C15.4167 13.0531 15.1 13.6281 14.7 14.1281L20.3 19.7281C20.4833 19.9115 20.575 20.1448 20.575 20.4281C20.575 20.7115 20.4833 20.9448 20.3 21.1281C20.1167 21.3115 19.8833 21.4031 19.6 21.4031C19.3167 21.4031 19.0833 21.3115 18.9 21.1281L13.3 15.5281C12.8 15.9281 12.225 16.2448 11.575 16.4781C10.925 16.7115 10.2333 16.8281 9.5 16.8281ZM9.5 14.8281C10.75 14.8281 11.8127 14.3908 12.688 13.5161C13.5633 12.6415 14.0007 11.5788 14 10.3281C13.9993 9.07746 13.562 8.01513 12.688 7.14113C11.814 6.26713 10.7513 5.82946 9.5 5.82812C8.24867 5.82679 7.18633 6.26446 6.313 7.14113C5.43967 8.01779 5.002 9.08012 5 10.3281C4.998 11.5761 5.43567 12.6388 6.313 13.5161C7.19033 14.3935 8.25267 14.8308 9.5 14.8281Z" fill="#9E9E9E"/>
</g>
</svg>
